<?xml version="1.0" encoding="UTF-8"?>
<svg version="1.1" xmlns="http://www.w3.org/2000/svg" width="1024" height="1024">
<path d="M0 0 C1.97436227 -0.00231007 3.94872367 -0.00549022 5.92308331 -0.00945449 C11.29764006 -0.01773615 16.672125 -0.01370766 22.04668188 -0.00748205 C27.86271982 -0.00293119 33.67874595 -0.00995431 39.49478149 -0.01544189 C50.8683516 -0.02430955 62.24189523 -0.02242562 73.61546636 -0.01661661 C82.86355 -0.01208976 92.11162626 -0.01149164 101.35971069 -0.01366425 C102.67869754 -0.01397071 103.99768438 -0.01427718 105.35664052 -0.01459293 C107.36468439 -0.01506884 109.37272826 -0.01555127 111.38077212 -0.01604671 C136.43561442 -0.02215464 161.49044233 -0.0166338 186.54528241 -0.00585292 C208.76920965 0.00363717 230.99311397 0.00278786 253.21704102 -0.0067749 C278.22820925 -0.01750121 303.23936479 -0.02172134 328.25053501 -0.01555037 C330.92032941 -0.01490901 333.59012381 -0.01428457 336.25991821 -0.01366425 C337.57332032 -0.01335569 338.88672243 -0.01304714 340.23992461 -0.01272924 C349.47101856 -0.01100637 358.70210434 -0.01390861 367.93319702 -0.01862335 C379.19120417 -0.02424724 390.44918344 -0.02268408 401.70718741 -0.01206186 C407.44511304 -0.00682543 413.18299229 -0.00471365 418.92091751 -0.01136017 C424.18377629 -0.01736395 429.44654613 -0.0139722 434.70939696 -0.00340506 C436.60284006 -0.00118968 438.49629083 -0.00226488 440.3897289 -0.00715664 C474.66320232 -0.08884026 507.42902738 6.44281399 534.80981445 28.25396729 C535.32785645 28.66517822 535.84589844 29.07638916 536.37963867 29.50006104 C556.49117818 45.59406831 570.67336416 65.80485596 579.12231445 90.12896729 C579.35273437 90.7745459 579.5831543 91.42012451 579.82055664 92.08526611 C584.71120193 107.05703231 585.2490126 122.50589965 585.19076538 138.0962677 C585.19423001 140.14146563 585.19899993 142.18666169 585.20494711 144.2318539 C585.21737608 149.80219597 585.21132394 155.37238223 585.20198846 160.94272459 C585.19516488 166.96938487 585.20569549 172.99601948 585.21392822 179.02267456 C585.22646512 190.12930929 585.22542436 201.23590155 585.21719382 212.34253652 C585.2096268 222.60499499 585.2076865 232.86743547 585.21126175 243.12989616 C585.21160548 244.153702 585.21160548 244.153702 585.21195616 245.19819078 C585.21289028 247.96929495 585.21384549 250.74039911 585.21483545 253.51150326 C585.22399805 279.46933212 585.21571478 305.42712973 585.19954476 331.38495376 C585.18530794 354.41446915 585.18658484 377.44393476 585.20092773 400.47344971 C585.21701337 426.3873796 585.22334966 452.30128191 585.21409094 478.2152161 C585.21312889 480.98076212 585.21219036 483.74630814 585.21126175 486.51185417 C585.2109059 487.53316861 585.2109059 487.53316861 585.21054286 488.57511566 C585.20713957 498.82833444 585.21110416 509.08153321 585.21870041 519.33474922 C585.22729987 530.99975968 585.22480046 542.6647228 585.20885818 554.32972807 C585.20099797 560.27615052 585.19784543 566.22247221 585.20780563 572.16889381 C585.21679963 577.62109814 585.21174269 583.07310909 585.19587298 588.52529608 C585.19254502 590.48870643 585.194174 592.4521334 585.20150034 594.41553289 C585.25316439 609.42205015 584.15093105 624.03998195 579.12231445 638.31646729 C578.86885254 639.05268311 578.61539063 639.78889893 578.35424805 640.54742432 C566.43772668 673.937989 542.22513221 699.42333029 510.80981445 715.25396729 C487.92428925 725.99277911 463.98956395 728.73433957 438.98002625 728.62818909 C436.98499888 728.63093857 434.98997298 728.63499818 432.99495059 728.64023274 C427.58185968 728.65069807 422.16893684 728.6427707 416.75585353 728.63148224 C410.89150442 728.6225646 405.02717554 728.63110529 399.16282654 728.63734436 C387.70323022 728.64678979 376.24369726 728.64027045 364.78410568 728.62808142 C355.46698184 728.61854339 346.14987043 728.61520044 336.83274269 728.61647606 C336.16850294 728.61656009 335.50426318 728.61664412 334.81989495 728.6167307 C332.12294636 728.617083 329.42599779 728.61746702 326.72904921 728.61789627 C301.48388052 728.62185213 276.2387452 728.60918579 250.99358605 728.58836971 C228.60118437 728.56999266 206.20881466 728.56419102 183.81640625 728.56964111 C182.37767888 728.56998755 180.93895151 728.57033365 179.50022414 728.5706794 C178.4332643 728.5709359 178.4332643 728.5709359 177.34474972 728.57119757 C173.76355603 728.57205121 170.18236234 728.57287499 166.60116863 728.57366657 C165.89453464 728.57382365 165.18790066 728.57398073 164.45985352 728.57414257 C145.70271934 728.57813814 126.9455882 728.57264986 108.18845588 728.56415528 C106.16880318 728.56324832 104.14915048 728.56234267 102.12949778 728.56144005 C100.78993499 728.56083894 99.4503722 728.56023033 98.11080941 728.55961414 C88.14027909 728.55510653 78.16975539 728.55508295 68.19922447 728.55712318 C56.85820595 728.55925005 45.51721807 728.5539836 34.17620816 728.53950963 C28.39585004 728.53229037 22.61553642 728.52816751 16.83517456 728.53275299 C11.53489963 728.53685524 6.23471624 728.53159114 0.93445513 728.51912691 C-0.97365411 728.5162201 -2.8817721 728.51660066 -4.789879 728.52076999 C-27.98549067 728.56681758 -49.87622923 725.80611833 -71.19018555 716.25396729 C-72.36323242 715.72931885 -73.5362793 715.20467041 -74.74487305 714.66412354 C-88.70461157 708.05734305 -100.17427998 698.96429988 -111.19018555 688.25396729 C-111.74996094 687.72045654 -112.30973633 687.1869458 -112.88647461 686.63726807 C-137.45820606 662.7985193 -147.7512669 628.22920124 -148.28369939 594.80365336 C-148.33332823 589.77038773 -148.32854257 584.73720359 -148.32389832 579.70375061 C-148.32577011 577.76227722 -148.32807227 575.8208042 -148.33076364 573.87933177 C-148.33684242 568.5816887 -148.3367527 563.2840615 -148.33556926 557.98641574 C-148.33536426 552.25822451 -148.34089344 546.53003825 -148.34562683 540.80184937 C-148.35391216 529.59364356 -148.3566807 518.38544301 -148.35723921 507.17723439 C-148.35771533 498.06210679 -148.35977488 488.94698092 -148.36293983 479.83185387 C-148.37030991 458.1632083 -148.37646529 436.49456421 -148.37594128 414.82591724 C-148.3759257 414.13398467 -148.37591012 413.4420521 -148.37589407 412.72915187 C-148.37581097 409.22267881 -148.37571193 405.71620575 -148.37560936 402.20973269 C-148.37558942 401.51341715 -148.37556947 400.81710161 -148.37554892 400.0996856 C-148.37550848 398.69156813 -148.37546669 397.28345067 -148.37542353 395.8753332 C-148.37481097 373.97411279 -148.38231629 352.07290787 -148.39599609 330.17169189 C-148.41138288 305.5278608 -148.41994812 280.88404027 -148.41903287 256.24020404 C-148.41870151 243.20591858 -148.42142189 230.17165059 -148.43221092 217.13736916 C-148.44133825 206.04001342 -148.44347284 194.94268308 -148.4367015 183.84532521 C-148.43344769 178.19020636 -148.43333828 172.53513619 -148.44205475 166.88002205 C-148.44997116 161.69034169 -148.44843639 156.50074818 -148.43977062 151.31106981 C-148.43824688 149.44643673 -148.4400086 147.58179699 -148.44563069 145.71717177 C-148.48995157 129.95788261 -148.33935726 113.48929001 -143.87768555 98.25396729 C-143.65894775 97.47182861 -143.44020996 96.68968994 -143.21484375 95.8838501 C-141.36010056 89.44378804 -139.1199838 83.28919203 -136.19018555 77.25396729 C-135.90804199 76.67195557 -135.62589844 76.08994385 -135.33520508 75.49029541 C-128.80819805 62.20823346 -120.32894847 51.0358607 -110.19018555 40.25396729 C-109.66424805 39.66357666 -109.13831055 39.07318604 -108.59643555 38.46490479 C-92.83071184 21.49262059 -69.84962635 10.58107246 -47.87768555 4.50396729 C-46.83197388 4.20571045 -46.83197388 4.20571045 -45.76513672 3.90142822 C-30.8600345 0.02340765 -15.29201981 -0.03950741 0 0 Z " fill="#154A86" transform="translate(293.190185546875,147.74603271484375)"/>
<path d="M0 0 C1.39090345 1.02033428 2.76710227 2.06113525 4.125 3.125 C4.73859375 3.57617188 5.3521875 4.02734375 5.984375 4.4921875 C15.69808358 12.09982652 21.88125281 24.08203038 24.125 36.125 C25.11088842 51.89921466 22.43341739 66.11697608 11.875 78.3125 C4.23464886 86.34305029 -3.3050085 91.54670335 -13.875 95.125 C-14.535 95.125 -15.195 95.125 -15.875 95.125 C-15.875 115.585 -15.875 136.045 -15.875 157.125 C-13.565 157.455 -11.255 157.785 -8.875 158.125 C3.64226987 162.35646702 13.2230897 172.59456489 19.125 184.125 C21.70892497 189.98031621 23.6582526 195.70722331 24.125 202.125 C24.18816406 202.81335938 24.25132812 203.50171875 24.31640625 204.2109375 C25.04133694 218.28862385 20.09520757 231.11427583 10.953125 241.62109375 C4.26650589 248.64204382 -2.64274554 253.20145275 -11.875 256.125 C-13.195 256.125 -14.515 256.125 -15.875 256.125 C-15.545 276.915 -15.215 297.705 -14.875 319.125 C-9.43 321.105 -9.43 321.105 -3.875 323.125 C9.99532071 331.18478095 18.08281203 342.04885796 23.125 357.125 C23.875 360.625 23.875 360.625 24.125 364.125 C24.18816406 364.81464844 24.25132812 365.50429688 24.31640625 366.21484375 C25.04226025 380.28704559 20.03972699 392.50101466 11.38671875 403.29296875 C7.48679894 407.61043886 3.04088951 410.63801647 -1.9375 413.5625 C-2.51508057 413.90498779 -3.09266113 414.24747559 -3.68774414 414.6003418 C-7.75133042 416.86108966 -11.30198446 417.56497646 -15.875 418.125 C-15.86611755 418.95105743 -15.85723511 419.77711487 -15.8480835 420.62820435 C-15.76782334 428.42583404 -15.70697771 436.22332432 -15.66775131 444.02127266 C-15.6469063 448.02998652 -15.61864594 452.03835811 -15.57324219 456.046875 C-15.52967301 459.91779809 -15.50583968 463.78839265 -15.49549103 467.65954208 C-15.4881194 469.13391158 -15.47372408 470.60826378 -15.45207977 472.08249283 C-15.42289643 474.15320459 -15.4190499 476.2225716 -15.42089844 478.29345703 C-15.41201599 479.47038116 -15.40313354 480.6473053 -15.39398193 481.8598938 C-15.98262755 485.85556584 -17.3681957 487.99250444 -19.875 491.125 C-23.90660965 493.81273977 -27.13923878 493.79915933 -31.875 493.125 C-35.99161711 490.76013485 -37.4546887 488.56843625 -38.875 484.125 C-39.11550903 481.01811218 -39.11550903 481.01811218 -39.10205078 477.4987793 C-39.10234283 476.85431351 -39.10263489 476.20984772 -39.10293579 475.54585266 C-39.10155005 473.43016779 -39.08602507 471.31484158 -39.0703125 469.19921875 C-39.06657967 467.72663058 -39.06373397 466.25403991 -39.06173706 464.78144836 C-39.05412183 460.91642328 -39.03449163 457.05154987 -39.0123291 453.18658447 C-38.99182508 449.23834281 -38.98272562 445.2900765 -38.97265625 441.34179688 C-38.9512436 433.60279563 -38.91713333 425.86391912 -38.875 418.125 C-39.48770752 417.99698502 -40.10041504 417.86897003 -40.73168945 417.73707581 C-41.94151489 417.47772499 -41.94151489 417.47772499 -43.17578125 417.21313477 C-43.97411377 417.04386978 -44.77244629 416.8746048 -45.5949707 416.70021057 C-57.28630826 413.75069542 -66.56811897 404.19834733 -72.75 394.3125 C-79.26865966 382.30364671 -80.92279499 368.69126935 -78.06640625 355.34765625 C-73.60568207 341.37895251 -64.38961172 330.19221036 -51.45703125 323.3046875 C-42.69912791 319.125 -42.69912791 319.125 -38.875 319.125 C-38.875 298.335 -38.875 277.545 -38.875 256.125 C-41.185 255.795 -43.495 255.465 -45.875 255.125 C-58.58879246 250.1460437 -68.71966796 240.17186413 -74.875 228.125 C-79.56386254 216.92382837 -81.26994509 202.84700878 -77.25 191.1875 C-76.50640799 189.47827114 -75.71488691 187.78902594 -74.875 186.125 C-74.4625 185.28710938 -74.05 184.44921875 -73.625 183.5859375 C-67.13645914 171.67799035 -57.06843049 163.65827474 -44.875 158.125 C-42.895 157.795 -40.915 157.465 -38.875 157.125 C-38.875 136.665 -38.875 116.205 -38.875 95.125 C-42.175 94.135 -45.475 93.145 -48.875 92.125 C-61.86143404 85.73931396 -71.93624271 75.02067296 -76.6875 61.3125 C-80.99682623 47.39207042 -79.88402154 33.56567928 -73.625 20.51953125 C-67.98129984 10.17809203 -59.38250884 2.32191318 -48.875 -2.875 C-48.09253906 -3.2875 -47.31007813 -3.7 -46.50390625 -4.125 C-32.27030681 -10.52012736 -12.92731322 -8.22844058 0 0 Z " fill="#FDFEFE" transform="translate(407.875,267.875)"/>
<path d="M0 0 C75.9 0 151.8 0 230 0 C230 7.59 230 15.18 230 23 C154.1 23 78.2 23 0 23 C0 15.41 0 7.82 0 0 Z " fill="#FCFCFD" transform="translate(476,626)"/>
<path d="M0 0 C75.9 0 151.8 0 230 0 C230 7.26 230 14.52 230 22 C154.1 22 78.2 22 0 22 C0 14.74 0 7.48 0 0 Z " fill="#FEFEFE" transform="translate(476,464)"/>
<path d="M0 0 C75.9 0 151.8 0 230 0 C230 7.26 230 14.52 230 22 C154.1 22 78.2 22 0 22 C0 14.74 0 7.48 0 0 Z " fill="#F8FAFB" transform="translate(476,301)"/>
</svg>
